<svg width="21" height="21" viewBox="0 0 21 21" fill="none" xmlns="http://www.w3.org/2000/svg">
<path d="M12.037 6.30958C12.0684 6.23335 12.1182 6.16606 12.1819 6.11371C12.2455 6.06137 12.3212 6.02558 12.4021 6.00955C12.4829 5.99351 12.5665 5.99772 12.6454 6.02181C12.7242 6.04589 12.7959 6.08909 12.854 6.14758L16.854 10.1476C16.9006 10.194 16.9375 10.2492 16.9627 10.3099C16.9879 10.3707 17.0009 10.4358 17.0009 10.5016C17.0009 10.5673 16.9879 10.6325 16.9627 10.6932C16.9375 10.754 16.9006 10.8091 16.854 10.8556L12.854 14.8556C12.7601 14.9495 12.6328 15.0022 12.5 15.0022C12.3672 15.0022 12.2399 14.9495 12.146 14.8556C12.0521 14.7617 11.9994 14.6344 11.9994 14.5016C11.9994 14.3688 12.0521 14.2415 12.146 14.1476L15.293 11.0016H4.5C4.36739 11.0016 4.24021 10.9489 4.14645 10.8551C4.05268 10.7614 4 10.6342 4 10.5016C4 10.369 4.05268 10.2418 4.14645 10.148C4.24021 10.0543 4.36739 10.0016 4.5 10.0016H15.293L12.146 6.85558C12.0757 6.78563 12.0279 6.69637 12.0085 6.59915C11.9891 6.50193 11.999 6.40114 12.037 6.30958Z" fill="#333030"/>
</svg>
