<svg width="21" height="20" viewBox="0 0 21 20" fill="none" xmlns="http://www.w3.org/2000/svg">
<path fill-rule="evenodd" clip-rule="evenodd" d="M11.1508 5.88032C11.6232 5.37776 12.2655 5.06874 12.953 5.0133C13.6404 4.95786 14.324 5.15995 14.8708 5.58032C16.2708 6.78032 16.0708 8.69032 15.0608 9.71032L10.2708 14.6003C10.2208 14.6603 10.1708 14.6603 10.0808 14.6003L5.30078 9.70032C5.03086 9.42544 4.82056 9.09782 4.68305 8.73796C4.54553 8.37809 4.48376 7.99371 4.50159 7.60888C4.51943 7.22405 4.61648 6.84703 4.78669 6.50143C4.9569 6.15582 5.19659 5.84905 5.49078 5.60032C6.55078 4.70032 8.19078 4.84032 9.23078 5.88032L10.1908 6.86032L11.1508 5.88032ZM10.1908 5.43032L10.4308 5.18032C11.0773 4.49788 11.9549 4.08084 12.8923 4.01058C13.8298 3.94032 14.7598 4.22188 15.5008 4.80032L15.5108 4.81032V4.82032C15.9116 5.15958 16.2382 5.57786 16.4702 6.04901C16.7021 6.52017 16.8344 7.03408 16.8588 7.55867C16.8832 8.08325 16.7992 8.60723 16.612 9.09788C16.4248 9.58853 16.1384 10.0353 15.7708 10.4103L10.9808 15.3103C10.793 15.4997 10.5437 15.6158 10.2779 15.6378C10.0121 15.6598 9.74717 15.5862 9.53078 15.4303L9.43078 15.3703L4.59078 10.4103C4.22366 10.037 3.93763 9.59194 3.75064 9.10292C3.56364 8.6139 3.47972 8.09151 3.50413 7.56853C3.52855 7.04554 3.66077 6.53324 3.8925 6.06377C4.12423 5.59429 4.45048 5.17777 4.85078 4.84032C5.58882 4.2492 6.52116 3.95533 7.46477 4.01638C8.40837 4.07744 9.29507 4.48902 9.95078 5.17032L9.96078 5.18032L10.2008 5.43032H10.1908Z" fill="black"/>
</svg>
