<svg width="21" height="21" viewBox="0 0 21 21" fill="none" xmlns="http://www.w3.org/2000/svg">
<path fill-rule="evenodd" clip-rule="evenodd" d="M8.91465 7.5C8.70873 8.0826 8.15311 8.5 7.5 8.5C6.84689 8.5 6.29127 8.0826 6.08535 7.5C6.03008 7.34361 6 7.17532 6 7C6 6.82468 6.03008 6.65639 6.08535 6.5C6.29127 5.9174 6.84689 5.5 7.5 5.5C8.15311 5.5 8.70873 5.9174 8.91465 6.5C8.96992 6.65639 9 6.82468 9 7C9 7.17532 8.96992 7.34361 8.91465 7.5ZM9.94999 6.5C9.71836 5.35888 8.70948 4.5 7.5 4.5C6.29052 4.5 5.28164 5.35888 5.05001 6.5H3.5V7.5H5.05001C5.28164 8.64112 6.29052 9.5 7.5 9.5C8.70948 9.5 9.71836 8.64112 9.94999 7.5H17.5V6.5H9.94999ZM12.0854 14.5C12.2913 15.0826 12.8469 15.5 13.5 15.5C14.1531 15.5 14.7087 15.0826 14.9146 14.5C14.9699 14.3436 15 14.1753 15 14C15 13.8247 14.9699 13.6564 14.9146 13.5C14.7087 12.9174 14.1531 12.5 13.5 12.5C12.8469 12.5 12.2913 12.9174 12.0854 13.5C12.0301 13.6564 12 13.8247 12 14C12 14.1753 12.0301 14.3436 12.0854 14.5ZM11.05 13.5C11.2816 12.3589 12.2905 11.5 13.5 11.5C14.7095 11.5 15.7184 12.3589 15.95 13.5H17.5V14.5H15.95C15.7184 15.6411 14.7095 16.5 13.5 16.5C12.2905 16.5 11.2816 15.6411 11.05 14.5H3.5V13.5H11.05Z" fill="black"/>
</svg>
