<svg width="30" height="30" viewBox="0 0 30 30" fill="none" xmlns="http://www.w3.org/2000/svg">
<rect x="0.5" y="0.5" width="29" height="29" rx="14.5" fill="white"/>
<g clip-path="url(#clip0_1189_6831)">
<path fill-rule="evenodd" clip-rule="evenodd" d="M12.8003 14.7637C12.7999 14.598 12.9339 14.4633 13.0995 14.4629L16.4197 14.4546C16.5854 14.4542 16.7201 14.5882 16.7205 14.7538C16.7209 14.9195 16.5869 15.0542 16.4212 15.0546L13.101 15.0629C12.9354 15.0633 12.8007 14.9294 12.8003 14.7637Z" fill="black"/>
<path fill-rule="evenodd" clip-rule="evenodd" d="M14.7555 12.7988C14.9212 12.7984 15.0559 12.9324 15.0563 13.0981L15.0646 16.4183C15.065 16.584 14.9311 16.7186 14.7654 16.719C14.5997 16.7195 14.465 16.5855 14.4646 16.4198L14.4563 13.0996C14.4559 12.9339 14.5899 12.7992 14.7555 12.7988Z" fill="black"/>
<path fill-rule="evenodd" clip-rule="evenodd" d="M17.6994 11.8181C16.0753 10.194 13.4422 10.194 11.8181 11.8181C10.194 13.4422 10.194 16.0754 11.8181 17.6994C13.4422 19.3235 16.0753 19.3235 17.6994 17.6994C19.3235 16.0754 19.3235 13.4422 17.6994 11.8181ZM11.3938 11.3938C13.2522 9.5354 16.2653 9.5354 18.1237 11.3938C19.9661 13.2362 19.982 16.2134 18.1714 18.0753L20.9484 20.8523C21.0656 20.9694 21.0656 21.1594 20.9484 21.2766C20.8313 21.3937 20.6413 21.3937 20.5241 21.2766L17.7267 18.4791C15.8583 19.9734 13.125 19.8549 11.3938 18.1237C9.5354 16.2653 9.5354 13.2522 11.3938 11.3938Z" fill="black"/>
</g>
<rect x="0.5" y="0.5" width="29" height="29" rx="14.5" stroke="#F0F0F0"/>
<defs>
<clipPath id="clip0_1189_6831">
<rect width="12" height="12" fill="white" transform="translate(10 10)"/>
</clipPath>
</defs>
</svg>
