<svg width="21" height="20" viewBox="0 0 21 20" fill="none" xmlns="http://www.w3.org/2000/svg">
<path fill-rule="evenodd" clip-rule="evenodd" d="M7.87355 3.79C7.92167 3.56597 8.04527 3.36527 8.22366 3.22146C8.40205 3.07766 8.62442 2.99948 8.85355 3H11.8636C12.0927 2.99948 12.3151 3.07766 12.4934 3.22146C12.6718 3.36527 12.7954 3.56597 12.8436 3.79C12.9105 4.09266 13.0452 4.37621 13.2375 4.6193C13.4298 4.86239 13.6748 5.0587 13.954 5.19346C14.2331 5.32822 14.5392 5.39793 14.8491 5.39733C15.1591 5.39673 15.4649 5.32584 15.7436 5.19C15.8728 5.12736 16.0141 5.09331 16.1577 5.09017C16.3014 5.08703 16.444 5.11488 16.5759 5.17181C16.7078 5.22875 16.8259 5.31344 16.9221 5.42012C17.0183 5.52679 17.0905 5.65295 17.1336 5.79L17.5036 7.02C17.5438 7.15408 17.5555 7.29513 17.5379 7.43401C17.5202 7.57289 17.4735 7.70651 17.401 7.82623C17.3284 7.94594 17.2315 8.04908 17.1165 8.12897C17.0015 8.20887 16.8711 8.26372 16.7336 8.29C16.106 8.40965 15.5371 8.73741 15.1188 9.22031C14.7005 9.70321 14.4572 10.313 14.4283 10.9513C14.3994 11.5895 14.5866 12.2188 14.9595 12.7375C15.3324 13.2563 15.8694 13.6341 16.4836 13.81C16.6116 13.8456 16.7313 13.9065 16.8356 13.9889C16.9399 14.0713 17.0267 14.1738 17.091 14.2901C17.1552 14.4065 17.1956 14.5346 17.2098 14.6668C17.224 14.7989 17.2117 14.9326 17.1736 15.06L16.7536 16.41C16.7049 16.5678 16.6179 16.7111 16.5003 16.8272C16.3827 16.9432 16.2383 17.0282 16.0798 17.0748C15.9213 17.1213 15.7538 17.1279 15.5922 17.0939C15.4305 17.0599 15.2799 16.9864 15.1536 16.88C14.8711 16.6426 14.5423 16.4666 14.1882 16.3631C13.834 16.2596 13.4622 16.2309 13.0963 16.2789C12.7305 16.3268 12.3786 16.4504 12.0631 16.6417C11.7475 16.833 11.4753 17.0878 11.2636 17.39C11.1714 17.522 11.0487 17.6299 10.906 17.7043C10.7632 17.7788 10.6046 17.8176 10.4436 17.8176C10.2825 17.8176 10.1239 17.7788 9.98115 17.7043C9.83838 17.6299 9.71571 17.522 9.62355 17.39C9.41878 17.0944 9.1562 16.8434 8.85169 16.6522C8.54718 16.4609 8.20705 16.3334 7.85187 16.2774C7.49668 16.2213 7.13381 16.2378 6.78519 16.3259C6.43657 16.414 6.10944 16.5719 5.82355 16.79C5.69636 16.8853 5.5483 16.9488 5.39164 16.9754C5.23498 17.002 5.07423 16.9909 4.92272 16.943C4.77121 16.8952 4.63329 16.8118 4.52039 16.7C4.4075 16.5882 4.32288 16.4511 4.27355 16.3L3.77355 14.7C3.6961 14.4545 3.71628 14.1886 3.8299 13.9577C3.94352 13.7267 4.14183 13.5485 4.38355 13.46C4.91962 13.2622 5.37977 12.9005 5.69871 12.4264C6.01765 11.9523 6.17917 11.3898 6.16035 10.8187C6.14154 10.2476 5.94334 9.69689 5.59389 9.24479C5.24444 8.79269 4.76148 8.46213 4.21355 8.3C4.08727 8.26225 3.9697 8.1999 3.86761 8.11655C3.76551 8.0332 3.68089 7.93049 3.61863 7.81432C3.55636 7.69816 3.51767 7.57083 3.50479 7.43966C3.49191 7.30849 3.50508 7.17606 3.54355 7.05L3.89355 5.92C3.93305 5.79094 3.99827 5.67122 4.08527 5.56803C4.17227 5.46485 4.27926 5.38035 4.39979 5.31962C4.52032 5.25888 4.6519 5.22318 4.7866 5.21465C4.9213 5.20612 5.05633 5.22495 5.18355 5.27C5.45743 5.3694 5.74935 5.40927 6.03986 5.38696C6.33036 5.36465 6.61277 5.28067 6.86826 5.14062C7.12375 5.00057 7.34646 4.80767 7.52153 4.57478C7.6966 4.34189 7.82002 4.07435 7.88355 3.79H7.87355ZM5.10355 6.29C5.50039 6.39389 5.91411 6.41665 6.31996 6.35693C6.7258 6.29721 7.11543 6.15624 7.46553 5.94245C7.81562 5.72866 8.119 5.44644 8.35749 5.11268C8.59599 4.77892 8.76471 4.40048 8.85355 4H11.8636C11.9607 4.45133 12.1594 4.87461 12.4445 5.23772C12.7296 5.60083 13.0937 5.89424 13.5091 6.09568C13.9245 6.29711 14.3803 6.40129 14.842 6.40031C15.3036 6.39933 15.759 6.29321 16.1736 6.09L16.5536 7.31C15.6998 7.46445 14.9238 7.90417 14.3526 8.55718C13.7814 9.21018 13.4488 10.0378 13.4093 10.9044C13.3698 11.7711 13.6258 12.6255 14.1352 13.3278C14.6446 14.0301 15.3774 14.5385 16.2136 14.77L15.8036 16.12C15.4161 15.7891 14.9636 15.5431 14.4751 15.3981C13.9866 15.2531 13.4732 15.2123 12.9679 15.2783C12.4627 15.3443 11.9769 15.5156 11.5421 15.7812C11.1072 16.0467 10.733 16.4007 10.4436 16.82C9.96955 16.1521 9.28679 15.6608 8.50285 15.4236C7.7189 15.1865 6.87833 15.2168 6.11355 15.51C5.80355 15.63 5.50355 15.8 5.22355 16.01L4.72355 14.4C5.31321 14.1891 5.83969 13.8319 6.25366 13.362C6.66763 12.8921 6.95555 12.3248 7.09045 11.7132C7.22535 11.1017 7.20282 10.4659 7.02496 9.86541C6.84711 9.26494 6.51975 8.71944 6.07355 8.28C5.63718 7.84016 5.09734 7.51694 4.50355 7.34L4.85355 6.22L5.10355 6.29Z" fill="black"/>
</svg>
