<svg width="20" height="21" viewBox="0 0 20 21" fill="none" xmlns="http://www.w3.org/2000/svg">
<g clip-path="url(#clip0_1148_6064)">
<path d="M15.8211 2.5495C14.4444 1.22789 12.5392 0.5 10.4565 0.5C7.27505 0.5 5.31832 1.80411 4.23707 2.89806C2.90449 4.24623 2.14038 6.03635 2.14038 7.80948C2.14038 10.0358 3.0716 11.7445 4.63102 12.3802C4.7357 12.4231 4.84106 12.4447 4.94434 12.4447C5.27332 12.4447 5.53399 12.2295 5.6243 11.8842C5.67696 11.6861 5.79891 11.1974 5.85196 10.9852C5.96547 10.5663 5.87376 10.3648 5.62618 10.073C5.17516 9.53933 4.96512 8.90827 4.96512 8.08698C4.96512 5.64748 6.78161 3.05481 10.1483 3.05481C12.8196 3.05481 14.479 4.5731 14.479 7.0171C14.479 8.55937 14.1468 9.98765 13.5434 11.039C13.1241 11.7696 12.3868 12.6404 11.2549 12.6404C10.7655 12.6404 10.3258 12.4393 10.0484 12.0888C9.78631 11.7574 9.6999 11.3294 9.80533 10.8832C9.9244 10.3792 10.0868 9.8534 10.2439 9.34511C10.5305 8.41675 10.8015 7.53991 10.8015 6.84034C10.8015 5.64377 10.0658 4.83974 8.97111 4.83974C7.57985 4.83974 6.48989 6.2528 6.48989 8.05671C6.48989 8.9414 6.72501 9.60312 6.83145 9.85719C6.65618 10.5998 5.61454 15.0146 5.41696 15.8471C5.3027 16.3331 4.61449 20.1716 5.7536 20.4776C7.03345 20.8215 8.17747 17.0831 8.29392 16.6607C8.3883 16.3171 8.71849 15.018 8.92084 14.2195C9.53869 14.8146 10.5335 15.2169 11.5015 15.2169C13.3263 15.2169 14.9674 14.3958 16.1225 12.9049C17.2428 11.4588 17.8598 9.4432 17.8598 7.22975C17.8597 5.49936 17.1166 3.79341 15.8211 2.5495Z" fill="black"/>
</g>
<defs>
<clipPath id="clip0_1148_6064">
<rect width="20" height="20" fill="white" transform="translate(0 0.5)"/>
</clipPath>
</defs>
</svg>
