<svg width="21" height="20" viewBox="0 0 21 20" fill="none" xmlns="http://www.w3.org/2000/svg">
<path d="M17.9458 6.12079L15.1158 3.29079C14.9284 3.10454 14.675 3 14.4108 3C14.1466 3 13.8932 3.10454 13.7058 3.29079L9.8158 7.18079L3.7958 13.1908C3.70207 13.2838 3.62768 13.3944 3.57691 13.5162C3.52614 13.6381 3.5 13.7688 3.5 13.9008C3.5 14.0328 3.52614 14.1635 3.57691 14.2854C3.62768 14.4072 3.70207 14.5178 3.7958 14.6108L6.6158 17.4308C6.70876 17.5245 6.81936 17.5989 6.94122 17.6497C7.06308 17.7005 7.19379 17.7266 7.3258 17.7266C7.45781 17.7266 7.58852 17.7005 7.71037 17.6497C7.83223 17.5989 7.94283 17.5245 8.0358 17.4308L17.9358 7.53079C18.119 7.34386 18.2217 7.09255 18.2217 6.83079C18.2217 6.56904 18.119 6.31772 17.9358 6.13079L17.9458 6.12079ZM7.3458 16.7208L4.4958 13.9108L5.9058 12.5008L6.9658 13.5608C7.01242 13.6074 7.06776 13.6444 7.12867 13.6696C7.18958 13.6949 7.25487 13.7078 7.3208 13.7078C7.38673 13.7078 7.45201 13.6949 7.51292 13.6696C7.57383 13.6444 7.62918 13.6074 7.6758 13.5608C7.72242 13.5142 7.7594 13.4588 7.78463 13.3979C7.80986 13.337 7.82284 13.2717 7.82284 13.2058C7.82284 13.1399 7.80986 13.0746 7.78463 13.0137C7.7594 12.9528 7.72242 12.8974 7.6758 12.8508L6.6258 11.7808L8.0458 10.3608L9.0958 11.4208C9.19086 11.5034 9.31361 11.5471 9.43951 11.5432C9.56541 11.5393 9.68518 11.4879 9.77487 11.3995C9.86457 11.3111 9.91758 11.192 9.92332 11.0662C9.92905 10.9404 9.88708 10.817 9.8058 10.7208L8.7458 9.66079L10.1658 8.24079L11.2158 9.31079C11.4158 9.51079 11.7158 9.51079 11.9158 9.31079C12.1158 9.11079 12.1158 8.81079 11.9158 8.61079L10.8658 7.54079L12.2858 6.11079L13.3458 7.17079C13.4409 7.25343 13.5636 7.29715 13.6895 7.2932C13.8154 7.28925 13.9352 7.23793 14.0249 7.1495C14.1146 7.06106 14.1676 6.94203 14.1733 6.8162C14.1791 6.69037 14.1371 6.56702 14.0558 6.47079L12.9958 5.41079L14.4058 4.01079L17.2358 6.84079L7.3358 16.7408L7.3458 16.7208Z" fill="black"/>
</svg>
