<svg width="21" height="20" viewBox="0 0 21 20" fill="none" xmlns="http://www.w3.org/2000/svg">
<path fill-rule="evenodd" clip-rule="evenodd" d="M13.5108 13.7179C12.2372 14.8278 10.5721 15.5 8.75 15.5C4.74594 15.5 1.5 12.2541 1.5 8.25C1.5 4.24594 4.74594 1 8.75 1C12.7541 1 16 4.24594 16 8.25C16 10.0721 15.3278 11.7372 14.2179 13.0108L20.3536 19.1464L19.6464 19.8536L13.5108 13.7179ZM15 8.25C15 11.7018 12.2018 14.5 8.75 14.5C5.29822 14.5 2.5 11.7018 2.5 8.25C2.5 4.79822 5.29822 2 8.75 2C12.2018 2 15 4.79822 15 8.25Z" fill="black"/>
</svg>
