<svg width="21" height="21" viewBox="0 0 21 21" fill="none" xmlns="http://www.w3.org/2000/svg">
<path fill-rule="evenodd" clip-rule="evenodd" d="M10.4693 5.1309C10.6077 5.12208 10.7491 5.17056 10.8548 5.27634L13.5632 7.98467C13.7584 8.17993 13.7584 8.49651 13.5632 8.69177C13.3679 8.88704 13.0513 8.88704 12.8561 8.69177L11 6.83569V12.13C11 12.4061 10.7761 12.63 10.5 12.63C10.2239 12.63 10 12.4061 10 12.13V6.83829L8.14652 8.69177C7.95126 8.88704 7.63468 8.88704 7.43942 8.69177C7.24415 8.49651 7.24415 8.17993 7.43942 7.98467L10.1263 5.29781C10.2115 5.20198 10.3331 5.13915 10.4693 5.1309ZM6.125 12.13C6.125 11.8538 5.90114 11.63 5.625 11.63C5.34886 11.63 5.125 11.8538 5.125 12.13V14.2967C5.125 14.7166 5.29185 15.1193 5.58872 15.4162C5.88569 15.7132 6.28845 15.88 6.70833 15.88H14.2917C14.7116 15.88 15.1143 15.7132 15.4113 15.4162C15.7082 15.1193 15.875 14.7166 15.875 14.2967V12.13C15.875 11.8538 15.6511 11.63 15.375 11.63C15.0989 11.63 14.875 11.8538 14.875 12.13V14.2967C14.875 14.4514 14.8136 14.5997 14.7041 14.7091C14.5947 14.8186 14.4464 14.88 14.2917 14.88H6.70833C6.5536 14.88 6.40524 14.8185 6.29588 14.7091C6.18643 14.5997 6.125 14.4513 6.125 14.2967V12.13Z" fill="black"/>
</svg>
