<svg width="20" height="21" viewBox="0 0 20 21" fill="none" xmlns="http://www.w3.org/2000/svg">
<path d="M9.79028 1.67234L10.1072 1.66099H10.1716C10.9414 1.66099 13.4629 1.87624 14.6565 4.54861C14.8354 4.95259 14.9182 5.54143 14.9358 6.24138C14.9531 6.93138 14.907 7.67045 14.8634 8.35245L14.8634 8.35244L14.863 8.35936L14.8607 8.4052C14.8507 8.55542 14.8423 8.69487 14.8355 8.83511L14.821 9.13407L15.0776 9.28807C15.2295 9.37917 15.428 9.43432 15.6691 9.43432H15.6824L15.6957 9.43361C16.0316 9.4157 16.3967 9.30341 16.7477 9.13355L16.7565 9.12928L16.7652 9.12467C16.7793 9.11715 16.8002 9.10955 16.829 9.10417C16.8578 9.09881 16.888 9.09682 16.9166 9.09682C17.019 9.09682 17.0999 9.11365 17.1524 9.13499L17.1678 9.14125L17.1836 9.14648C17.4296 9.22796 17.4524 9.35686 17.4524 9.37016V9.3785L17.4527 9.38685L17.4527 9.38734C17.4531 9.39947 17.4547 9.44492 17.362 9.53415C17.2605 9.63189 17.0752 9.75029 16.7697 9.87368C16.734 9.88561 16.6955 9.89934 16.6601 9.91195L16.6451 9.91728C16.5989 9.93371 16.5529 9.94993 16.5054 9.9655C16.3174 10.022 16.0441 10.1074 15.7917 10.2366C15.5492 10.3607 15.2359 10.5696 15.0849 10.9197L15.0848 10.9197L15.0801 10.9312C14.9314 11.3014 15.0104 11.7105 15.2016 12.0738L15.2369 12.1409L15.2393 12.1433C15.3514 12.3812 15.6856 13.0368 16.2705 13.7241C16.9502 14.5229 17.9988 15.3991 19.4618 15.6732C19.4024 15.7403 19.2673 15.8468 18.9736 15.9656C18.5908 16.1204 18.0294 16.2595 17.2652 16.3749L17.0427 16.4085L16.9204 16.5973C16.8738 16.6692 16.8455 16.7456 16.8305 16.7891C16.8124 16.8413 16.7967 16.8965 16.7834 16.9469C16.7605 17.0336 16.7391 17.1289 16.7227 17.2023C16.7202 17.2135 16.7178 17.2242 16.7155 17.2343L16.7121 17.2492L16.7097 17.2644C16.6907 17.3813 16.6609 17.5045 16.6184 17.6427H16.6041C16.5484 17.6427 16.4502 17.6282 16.2536 17.5906C15.9301 17.5234 15.5587 17.4685 15.0949 17.4685C14.8294 17.4685 14.5475 17.4816 14.2451 17.5381C13.6268 17.6464 13.1066 18.0106 12.6337 18.3417L12.6115 18.3572L12.6109 18.3576C11.8982 18.8581 11.2059 19.3379 10.1605 19.3401C10.1575 19.3398 10.1514 19.3391 10.1408 19.3378L10.1366 19.3373C10.1137 19.3343 10.0611 19.3277 10.0032 19.3277H9.87906C8.82959 19.3277 8.14575 18.8573 7.43857 18.3485L7.4386 18.3484L7.43361 18.3449C7.4159 18.3325 7.39813 18.32 7.38029 18.3075C6.9198 17.9841 6.41748 17.6314 5.81025 17.5251L5.80264 17.5238L5.79499 17.5227C5.51806 17.483 5.2307 17.456 4.95073 17.456C4.48426 17.456 4.11256 17.528 3.85721 17.5774C3.83632 17.5815 3.81621 17.5853 3.79689 17.589L3.79688 17.589L3.79088 17.5902C3.61245 17.6266 3.50821 17.6418 3.44073 17.6418C3.4375 17.6418 3.43454 17.6418 3.43182 17.6417L3.43142 17.6404C3.41353 17.5841 3.3988 17.5222 3.38251 17.4463C3.37924 17.4311 3.37576 17.4145 3.37209 17.397C3.35925 17.336 3.34401 17.2635 3.32714 17.1968L3.32699 17.1962C3.31932 17.166 3.31081 17.1292 3.30007 17.0828L3.29889 17.0777C3.28821 17.0315 3.27571 16.9777 3.26243 16.9255C3.24947 16.8747 3.23336 16.8158 3.21425 16.7606C3.20134 16.7233 3.16591 16.621 3.09399 16.5314L2.96549 16.3712L2.76155 16.3476C1.98139 16.2573 1.41479 16.1299 1.03228 15.9808C0.729627 15.8628 0.597265 15.753 0.54192 15.6849C2.00252 15.4096 3.04969 14.5339 3.72884 13.7352C4.38185 12.9672 4.72272 12.2382 4.79189 12.0828L4.79435 12.0784L4.79447 12.0784L4.79985 12.0681C4.97642 11.7297 5.09399 11.3004 4.91016 10.9041C4.75594 10.5644 4.44277 10.3622 4.20735 10.2419C3.97156 10.1214 3.71385 10.0348 3.53608 9.97499C3.52557 9.97146 3.51535 9.96802 3.50543 9.96468L3.48412 9.9575L3.46226 9.95226C3.40019 9.93738 3.32994 9.91183 3.25278 9.87908L3.25285 9.87891L3.24026 9.87396C2.82336 9.71014 2.65497 9.56021 2.59168 9.47714C2.54682 9.41827 2.54865 9.38749 2.55166 9.36906C2.55665 9.34652 2.58329 9.28685 2.68739 9.22108C2.79239 9.15474 2.92476 9.11766 3.03323 9.11766C3.08031 9.11766 3.11854 9.12555 3.15743 9.14C3.5319 9.31152 3.91064 9.42932 4.27239 9.42932C4.55817 9.42932 4.76618 9.35475 4.90272 9.2789L5.18422 9.12251L5.15827 8.80153L5.12035 8.33248L5.11926 8.31451C5.07853 7.6387 5.03455 6.9093 5.05243 6.22785C5.07078 5.52816 5.15407 4.94169 5.3336 4.54146L5.33362 4.54147L5.33567 4.53679C6.49308 1.88428 9.00118 1.67266 9.77239 1.67266H9.78134L9.79028 1.67234Z" stroke="black"/>
</svg>
