<svg width="20" height="21" viewBox="0 0 20 21" fill="none" xmlns="http://www.w3.org/2000/svg">
<g clip-path="url(#clip0_1148_6071)">
<path d="M16.1148 15.7856C16.0107 15.7293 15.8838 15.7347 15.7845 15.7999C14.8716 16.3995 13.9478 16.7035 13.0389 16.7035C12.5435 16.7035 12.1173 16.5922 11.7333 16.3618C11.4738 16.2091 11.3019 16.0135 11.2083 15.7645C11.1369 15.5724 11.0515 15.0613 11.0515 13.7169V9.07532H15.3204C15.4986 9.07532 15.6429 8.93087 15.6429 8.75274V5.71404C15.6429 5.53584 15.4986 5.39147 15.3204 5.39147H11.0515V0.822577C11.0515 0.644374 10.9071 0.5 10.7289 0.5H7.97511C7.81234 0.5 7.67499 0.621367 7.65503 0.782968C7.5366 1.7398 7.31949 2.53413 7.00922 3.14433C6.70316 3.74956 6.29043 4.27502 5.78227 4.70662C5.27633 5.13803 4.65641 5.47432 3.9395 5.70603C3.80634 5.74908 3.71606 5.87306 3.71606 6.01299V8.7527C3.71606 8.93083 3.86044 9.07528 4.03864 9.07528H5.85594V15.5422C5.85594 16.4771 5.95418 17.1783 6.15633 17.6852C6.36008 18.1985 6.72601 18.685 7.24425 19.1316C7.75535 19.5704 8.37769 19.9125 9.09393 20.1482C9.80174 20.3816 10.6249 20.5 11.5405 20.5C12.3415 20.5 13.098 20.4181 13.7889 20.2566C14.4811 20.0944 15.2585 19.8108 16.0993 19.4137C16.2121 19.3604 16.2841 19.2468 16.2841 19.122V16.0695C16.2842 15.9509 16.2193 15.8419 16.1148 15.7856Z" fill="black"/>
</g>
<defs>
<clipPath id="clip0_1148_6071">
<rect width="20" height="20" fill="white" transform="translate(0 0.5)"/>
</clipPath>
</defs>
</svg>
