<svg width="20" height="21" viewBox="0 0 20 21" fill="none" xmlns="http://www.w3.org/2000/svg">
<path fill-rule="evenodd" clip-rule="evenodd" d="M19.9149 4.70973C20.0641 3.87233 20.0608 3.01126 19.5436 2.36006C18.822 1.44699 17.2861 1.41339 16.2339 1.57452C15.3779 1.70539 12.4826 2.9828 11.4974 6.04094C13.2428 5.90827 14.1576 6.16674 13.9897 8.08848C13.9194 8.89255 13.5132 9.77342 13.0599 10.6179C12.5361 11.5914 11.5544 13.503 10.267 12.1251C9.10736 10.885 9.19443 8.51315 8.9293 6.93368C8.78163 6.04754 8.6255 4.9432 8.33516 4.03173C8.08496 3.24793 7.51123 2.30293 6.80956 2.09813C6.05595 1.87666 5.12422 2.22233 4.57708 2.54466C2.83481 3.56846 1.50701 5.02527 0 6.22707C0.245334 6.75268 0.379135 7.09321 0.818869 7.15701C1.85627 7.30981 2.84494 6.19021 3.53461 7.35508C3.95421 8.06675 4.08528 8.84715 4.35375 9.61448C4.71288 10.6364 4.98982 11.7492 5.28355 12.9242C5.78035 14.9147 6.39142 17.8889 8.11183 18.6174C8.98956 18.9902 10.309 18.4915 10.977 18.0954C12.7863 17.0246 14.1962 15.4722 15.4031 13.8927C18.1623 10.1546 19.6847 5.91994 19.9149 4.70973Z" fill="black"/>
</svg>
